<svg height="76" viewBox="0 0 370 76" width="370" xmlns="http://www.w3.org/2000/svg"><g fill="none" fill-rule="evenodd"><g fill="#000"><path d="m108.198 32.81c0-6.952-1.493-8.785-6.44-8.785h-2.346v18.21h1.792c5.075 0 6.994-2.516 6.994-9.425zm-6.44-11.473c6.44 0 9.34 2.773 9.34 11.473 0 8.657-3.37 12.026-9.894 12.026h-1.792v9.81h-2.858v-33.309zm26.995 10.918c0-6.397-1.706-8.23-6.526-8.23h-2.388v17.144h2.132c4.777 0 6.782-2.729 6.782-8.914zm-6.526-10.918c6.27 0 9.383 2.73 9.383 10.918 0 6.014-2.047 9.554-5.758 10.918l5.801 11.473h-3.199l-5.373-10.918c-.342.043-.726.043-1.11.043h-2.132v10.875h-2.858v-33.309zm23.029 31.219c3.369 0 4.733-1.919 4.733-7.25v-14.586c0-5.331-1.364-7.25-4.733-7.25-3.37 0-4.735 1.919-4.735 7.25v14.586c0 5.331 1.365 7.25 4.735 7.25zm-7.635-21.836c0-6.823 2.345-9.895 7.635-9.895 5.288 0 7.633 3.072 7.633 9.895v14.586c0 6.823-2.345 9.894-7.633 9.894-5.29 0-7.635-3.071-7.635-9.894zm20.218 27.039c4.477 0 5.16-1.877 5.16-6.653v-27.081h-4.479v-2.688h7.336v30.024c0 6.483-1.877 9.042-7.122 9.042l-.895-.043z"/><path d="m186.146 21.337v2.688h-9.596v14.372h7.89v2.601h-7.89v10.961h9.596v2.687h-12.496v-33.309z"/><path d="m205.634 30.123-.085 8.529h-2.686v-8.529c0-4.862-.683-6.653-4.095-6.653-3.411 0-4.264 1.791-4.264 6.653v14.671c0 5.672 1.877 7.25 6.482 7.25h4.521v2.602l-4.521.128c-6.525 0-9.383-2.346-9.383-9.98v-14.671c0-6.354 1.834-9.298 7.165-9.298s6.866 2.944 6.866 9.298"/><path d="m225.294 21.337v2.688h-6.142v30.621h-2.899v-30.621h-6.185v-2.688z"/><path d="m244.909 21.209v28.021h7.549v5.416h-13.605v-33.437z"/><path d="m255.655 54.645h6.056v-33.436h-6.056z"/><path d="m285.934 21.209v33.437h-7.635l-4.776-18.382-1.492-7.933h-.555l.768 13.008v13.307h-5.544v-33.437h7.677l4.648 17.699 1.578 8.402h.554l-.725-13.349v-12.752z"/><path d="m298.512 42.363h-2.43v12.283h-5.971v-33.437h5.971v15.865h2.473l3.625-15.865h6.056l-4.563 18.424 5.033 15.013h-6.27z"/><path d="m323.02 42.32-1.45-16.036h-1.834l-1.407 16.036zm-7.932-21.111h11.13l4.052 33.437h-6.055l-.726-7.336h-5.629l-.726 7.336h-6.055zm35.28 17.273v7.208c0 6.823-2.388 9.595-8.444 9.595-6.269 0-9.041-2.814-9.041-9.68v-14.8c0-6.866 2.558-10.236 8.7-10.236 6.269 0 8.487 3.157 8.487 8.957l-.171 4.777h-5.63v-3.924c0-3.284-.256-4.691-2.686-4.691-2.261 0-2.645 1.407-2.645 4.904v15.013c0 3.497.683 4.69 3.028 4.69 2.389 0 3.029-1.065 3.029-4.605v-2.474h-2.986v-4.734z"/><path d="m369.064 21.209v5.417h-8.999v9.766h7.293v5.033h-7.293v7.805h8.999v5.416h-14.97v-33.437z"/></g><path d="m75.954 38.023c0 20.974-17.003 37.977-37.977 37.977s-37.977-17.003-37.977-37.977 17.003-37.977 37.977-37.977 37.977 17.003 37.977 37.977" fill="#fbd155"/><path d="m31.327 21.341-12.224 21.173c-.383-.051-.77-.088-1.166-.088-4.802 0-8.694 3.893-8.694 8.694 0 4.802 3.892 8.695 8.694 8.695 3.759 0 6.952-2.392 8.165-5.733h24.133c1.212 3.341 4.405 5.733 8.165 5.733 4.801 0 8.693-3.893 8.693-8.695 0-4.801-3.892-8.694-8.693-8.694-3.76 0-6.953 2.392-8.165 5.733h-24.133c-.392-1.08-.99-2.058-1.75-2.891l12.107-20.969c.494.088.999.142 1.518.142 4.802 0 8.694-3.893 8.694-8.694 0-4.802-3.892-8.694-8.694-8.694-3.76 0-6.952 2.391-8.165 5.732h-20.203c-1.625 1.825-3.076 3.808-4.329 5.924h24.532c.351.968.864 1.859 1.515 2.632" fill="#000"/></g></svg>