<svg height="154" viewBox="0 0 154 154" width="154" xmlns="http://www.w3.org/2000/svg"><g fill="none" fill-rule="evenodd"><path d="m77 115.546c0 21.262843-17.2371567 38.5-38.5 38.5s-38.5-17.237157-38.5-38.5c0-21.2628433 17.2371567-38.5 38.5-38.5s38.5 17.2371567 38.5 38.5" fill="#e0e0e0"/><path d="m31.7584196 98.6342639-12.3923428 21.4645841c-.3882744-.051703-.780604-.089212-1.1820575-.089212-4.8681307 0-8.81372939 3.946612-8.81372939 8.813729 0 4.868131 3.94559869 8.814743 8.81372939 8.814743 3.810767 0 7.0477394-2.424941 8.2774442-5.811952h24.4653475c1.228691 3.387011 4.4656634 5.811952 8.2774442 5.811952 4.8671169 0 8.8127156-3.946612 8.8127156-8.814743 0-4.867117-3.9455987-8.813729-8.8127156-8.813729-3.8117808 0-7.0487532 2.424941-8.2774442 5.811952h-24.4653475c-.3973984-1.094873-1.0036338-2.086342-1.7741001-2.930814l12.2737315-21.257774c.5008031.089212 1.0127577.143956 1.5389051.143956 4.8681307 0 8.8137294-3.9466128 8.8137294-8.8137298 0-4.8681307-3.9455987-8.8137293-8.8137294-8.8137293-3.8117808 0-7.0477394 2.4239276-8.2774442 5.8109382h-20.48122552c-1.64737868 1.8501329-3.11836111 3.8604418-4.3886168 6.0055823h24.86984232c.3558338.9813308.8758985 1.8846012 1.5358638 2.6682465" fill="#fff"/><path d="m154 38.546c0 21.2628433-17.237157 38.5-38.5 38.5-21.2628433 0-38.5-17.2371567-38.5-38.5s17.2371567-38.5 38.5-38.5c21.262843 0 38.5 17.2371567 38.5 38.5" fill="#e0e0e0"/><path d="m108.75842 21.6342639-12.3923432 21.4645839c-.3882744-.0517024-.780604-.0892119-1.1820575-.0892119-4.8681307 0-8.8137294 3.9466124-8.8137294 8.8137293 0 4.8681308 3.9455987 8.8147432 8.8137294 8.8147432 3.810767 0 7.0477397-2.4249414 8.2774447-5.811952h24.465347c1.228691 3.3870106 4.465663 5.811952 8.277444 5.811952 4.867117 0 8.812716-3.9466124 8.812716-8.8147432 0-4.8671169-3.945599-8.8137293-8.812716-8.8137293-3.811781 0-7.048753 2.4249414-8.277444 5.811952h-24.465347c-.397399-1.0948733-1.003634-2.0863418-1.774101-2.9308134l12.273732-21.2577745c.500803.0892119 1.012758.1439556 1.538905.1439556 4.868131 0 8.813729-3.9466124 8.813729-8.8137294 0-4.8681307-3.945598-8.81372935-8.813729-8.81372935-3.811781 0-7.047739 2.42392764-8.277444 5.81093825h-20.4812257c-1.6473787 1.8501329-3.1183611 3.8604418-4.3886168 6.0055823h24.8698425c.355834.9813308.875898 1.8846012 1.535864 2.6682465" fill="#fff"/></g></svg>