<svg height="77" viewBox="0 0 77 77" width="77" xmlns="http://www.w3.org/2000/svg"><g fill="none" fill-rule="evenodd" transform="translate(0 .046)"><path d="m77 38.5c0 21.2628433-17.2371567 38.5-38.5 38.5s-38.5-17.2371567-38.5-38.5 17.2371567-38.5 38.5-38.5 38.5 17.2371567 38.5 38.5" fill="#fbd155"/><path d="m31.7584196 21.5882639-12.3923428 21.4645839c-.3882744-.0517024-.780604-.0892119-1.1820575-.0892119-4.8681307 0-8.81372939 3.9466124-8.81372939 8.8137293 0 4.8681308 3.94559869 8.8147432 8.81372939 8.8147432 3.810767 0 7.0477394-2.4249414 8.2774442-5.811952h24.4653475c1.228691 3.3870106 4.4656634 5.811952 8.2774442 5.811952 4.8671169 0 8.8127156-3.9466124 8.8127156-8.8147432 0-4.8671169-3.9455987-8.8137293-8.8127156-8.8137293-3.8117808 0-7.0487532 2.4249414-8.2774442 5.811952h-24.4653475c-.3973984-1.0948733-1.0036338-2.0863418-1.7741001-2.9308134l12.2737315-21.2577745c.5008031.0892119 1.0127577.1439556 1.5389051.1439556 4.8681307 0 8.8137294-3.9466124 8.8137294-8.8137294 0-4.8681307-3.9455987-8.81372935-8.8137294-8.81372935-3.8117808 0-7.0477394 2.42392764-8.2774442 5.81093825h-20.48122552c-1.64737868 1.8501329-3.11836111 3.8604418-4.3886168 6.0055823h24.86984232c.3558338.9813308.8758985 1.8846012 1.5358638 2.6682465" fill="#000"/></g></svg>